<svg xmlns="http://www.w3.org/2000/svg" xmlns:xlink="http://www.w3.org/1999/xlink" id="Livello_1" x="0px" y="0px" viewBox="0 0 446.8 141.5" style="enable-background:new 0 0 446.8 141.5;" xml:space="preserve"><style type="text/css">	.st0{fill:#D3D655;}	.st1{fill:#847770;}	.st2{fill:#92C0E9;}	.st3{fill:#CEB4A8;}	.st4{fill:#CDCCCC;}	.st5{fill:#DAE1E9;}	.st6{fill:#E3E3E3;}	.st7{fill:#71A850;}</style><g>	<path class="st0" d="M92.6,47.4c1.2-1.2,2.1-2.7,2.6-4.3c-1.4-1-3-1.6-4.7-1.9c-1.7-0.3-3.6-0.1-5.3,0.5c-3.5,1.2-6.1,3.9-7.2,7.2  c2.8,2,6.5,2.6,10.1,1.4C89.9,49.7,91.4,48.7,92.6,47.4z"></path>	<path class="st1" d="M70,38.8c8.2-0.7,16-2.7,23.2-5.7l-18-14.2L70,38.8z"></path>	<path class="st1" d="M98,31.3l10.5-6.3c-1.9-2.9-4-5.7-6.2-8.4l-9.1,8.2C94.9,26.9,96.5,29.1,98,31.3z"></path>	<path class="st2" d="M68.4,17.6c0.9-2.1,3.2-4.3,5.1-5c0.7-0.2,1.4-0.4,2.2-0.4c3.6,0,8.6,3,13.4,8c0.6,0.6,1.1,1.2,1.7,1.8  l9.1-8.2c-0.6-0.7-1.3-1.4-1.9-2.1C90.8,4.2,80.3-2.7,69.5,1c-5.3,1.8-10,6.5-12.3,11.6c-2,4.4-3.2,9.3-3.8,14.2l12.2,1.9  C66,24.8,66.9,21,68.4,17.6z"></path>	<path class="st1" d="M104.5,43.5l10.9-5.6c-1.2-2.8-2.6-5.5-4.1-8.1l-10.5,6.3C102.2,38.5,103.4,41,104.5,43.5z"></path>	<path class="st2" d="M65.3,32.5L53,30.6c-0.2,2.6-0.1,5.3,0,8l12.4,0.5C65.3,36.9,65.2,34.7,65.3,32.5z"></path>	<path class="st3" d="M110.4,63.7l12.2-0.9c-0.9-6.1-2.4-12.2-4.4-18l-11,5.6C108.6,54.8,109.7,59.2,110.4,63.7z"></path>	<path class="st1" d="M76.8,68.9c-2-2.5-3.7-5.2-5.2-8.1l-12.9,1.3c2.3,5.3,5.1,10.2,8.5,14.4c0.3,0.4,0.6,0.8,1,1.2l11.5-5.4  C78.6,71.1,77.7,70,76.8,68.9z"></path>	<path class="st1" d="M66.2,44.7l-12.6-0.6c0.5,3.6,1.3,7.2,2.4,10.8l12.5-1.3C67.5,50.7,66.8,47.7,66.2,44.7z"></path>	<path class="st4" d="M89.8,124.8C89.8,124.8,89.8,124.8,89.8,124.8L89.8,124.8z"></path>	<path class="st5" d="M84.5,124c0,1.9,0.1,8.8,0.6,13c4.4,2.8,8,3.7,12.1,4.3c-0.3-6.4-0.4-13.7-0.4-16.1  C92.6,125,88.5,124.7,84.5,124z M89.8,124.8C89.8,124.8,89.8,124.8,89.8,124.8L89.8,124.8z"></path>	<path class="st5" d="M97.4,117.4c0.2-1.2,0.4-2.5,0.5-3.8c-4.3-0.5-8.4-2-11.9-4.2c-0.2,3-0.8,6.1-1.1,9.1c3.8,1.4,7.9,2.2,12,2.6  C97,120,97.2,118.7,97.4,117.4z"></path>	<path class="st3" d="M111.7,112.1c1,2.5,2.1,4.9,3.2,7.1c4-1.2,7.7-2.9,11.2-5.1c-1.4-2.8-2.8-5.8-3.7-8.7  C119.3,108.4,115.7,110.6,111.7,112.1z"></path>	<path class="st6" d="M89.8,124.8C89.8,124.8,89.8,124.8,89.8,124.8L89.8,124.8z"></path>	<path class="st7" d="M94.2,81.2c2.2,2.3,4.9,4,7.8,5.1c1.9-2.5,3.1-5.5,3.7-8.6c0.6-3.2,0.4-6.5-0.6-9.8c-2-6.5-6.9-11.4-12.8-13.6  c-3.7,5.1-5.1,11.9-3.1,18.4C90.2,76,92,78.9,94.2,81.2z"></path>	<path class="st0" d="M112,105.8c1.9-1.4,3.5-3.2,4.7-5.3c-1.7-1.7-3.8-3-6-3.7c-2.3-0.8-4.9-1-7.5-0.7c-5.1,0.8-9.3,3.9-11.6,8.2  c3.4,3.4,8.4,5.1,13.5,4.4C107.6,108.2,110,107.2,112,105.8z"></path>	<path class="st7" d="M106.3,138.2c1,1.3,2.3,2.3,3.8,3c1.1-1.2,1.9-2.7,2.3-4.3c0.5-1.6,0.6-3.4,0.2-5.1c-0.7-3.5-3-6.2-6-7.7  c-2.2,2.5-3.2,5.9-2.5,9.4C104.5,135.3,105.3,136.9,106.3,138.2z"></path>	<path class="st1" d="M109.7,112.6l-3.6,8.1l-6.1-6.9c0,0,3.2,0,4.9-0.3C106.7,113.3,109.7,112.6,109.7,112.6z"></path>	<path class="st5" d="M133.3,138c-1.1-5.9-2.5-11.9-4.5-17.5c-0.1-0.2-0.1-0.4-0.2-0.6c-0.1-0.3-0.3-0.6-0.4-1  c-3.7,1.6-7.6,2.9-11.7,3.9c0.3,0.6,0.5,1.1,0.7,1.6c0.2,0.4,3.9,9.9,6.5,16.2c0.2,0,0.4-0.1,0.6-0.1c2.4-0.5,4.7-1.1,7-1.8  l1.9-0.5C133.3,138.2,133.4,138.2,133.3,138z"></path>	<path class="st1" d="M46.6,94.6l11.8-3.4c-1.1-3.3-2.3-6.6-3.8-9.7l-10.9,5.6C44.8,89.6,45.8,92.1,46.6,94.6z"></path>	<path class="st2" d="M21.6,73.8c1.5-1.8,4.2-3.4,6.2-3.5c0.8-0.1,1.5,0,2.2,0.2c3.5,0.9,7.6,5.1,10.9,11.2c0.4,0.7,0.8,1.4,1.1,2.1  L53,78.2c-0.4-0.8-0.9-1.7-1.3-2.5c-5-9.1-13.4-18.5-24.8-17.7c-5.6,0.4-11.4,3.7-14.9,8.1c-3,3.8-5.5,8.1-7.4,12.7l11.3,5  C17.4,80.1,19.3,76.7,21.6,73.8z"></path>	<path class="st3" d="M49.8,108.1l12-2.6c-0.5-3-1.1-6-1.8-8.9l-11.8,3.4C48.9,102.6,49.4,105.3,49.8,108.1z"></path>	<path class="st3" d="M14.7,87.4l-11.3-5c-0.8,2.5-1.5,5.1-2,7.7l11.8,3.7C13.6,91.7,14.1,89.5,14.7,87.4z"></path>	<path class="st5" d="M12.3,106.7c0-2,0-5.3,0.1-7.3l-12-3.8c-0.4,3.5-0.5,7-0.4,10.5C4.1,105.6,8.1,105.9,12.3,106.7z"></path>	<path class="st1" d="M18.1,94.9c8.1,1.4,16.1,1.5,23.9,0.4L28.2,77L18.1,94.9z"></path>	<path class="st3" d="M91.8,86.8c-1.6-1.8-3.5-4.1-5.4-7.1c-0.4-0.6-0.7-1.1-1.1-1.7l-0.1-0.2l-1.5,0.8l0,0l0,0l-10.4,4.9  c1.8,1.9,3.5,3.8,5.1,5.8c2.6,3.2,5,6.8,6.4,10.7c1-1,2-1.9,3.2-2.8c2.2-1.7,4.7-3.1,7.3-4.1l2.9-1C98.1,92.1,95.5,90.8,91.8,86.8z  "></path>	<path class="st3" d="M123.4,70.2l-12.2,0.9c0.2,2.7,0.2,5.4,0.1,8.1c-0.3,3.8-1.3,8.3-3.6,11.9c0,0,2.3,0.2,2.3,0.3  c4.3,0.6,8.2,2,11.7,4.2c0.2-1,0.4-2,0.5-2.9C123.5,85.3,123.9,77.7,123.4,70.2z"></path>	<path class="st0" d="M35.7,108.4c1.5-0.8,2.9-1.9,3.9-3.2c-1-1.4-2.3-2.5-3.8-3.4c-1.5-0.8-3.3-1.3-5.2-1.4  c-3.7-0.1-7.1,1.6-9.2,4.4c2,2.8,5.3,4.6,9,4.7C32.3,109.6,34.1,109.1,35.7,108.4z"></path>	<g>		<path class="st1" d="M159.2,138.1c-1.1,0-1.9-0.3-2.4-0.9c-0.5-0.6-0.6-1.6-0.3-3c0.2-1,0.5-1.8,1-2.4c0.5-0.7,1-1.1,1.7-1.5   c0.6-0.3,1.3-0.5,2-0.5c0.5,0,1,0.1,1.3,0.2c0.4,0.1,0.7,0.3,1,0.6l0.1-0.6h1.4l-1.7,8h-1.2l0.1-0.8c-0.4,0.3-0.9,0.6-1.4,0.8   C160.3,138,159.8,138.1,159.2,138.1z M159.8,137c0.5,0,0.9-0.1,1.3-0.2c0.4-0.2,0.8-0.4,1.2-0.7l0.9-4.4c-0.2-0.2-0.5-0.4-0.8-0.6   c-0.3-0.1-0.7-0.2-1.2-0.2c-0.9,0-1.7,0.3-2.3,0.8c-0.6,0.6-1,1.4-1.2,2.5c-0.2,1-0.2,1.8,0.1,2.2   C158.2,136.7,158.8,137,159.8,137z"></path>		<path class="st1" d="M169.4,137.9l-1.5-8h1.4l1.1,6.7l3.9-6.7h1.5l-4.8,8H169.4z"></path>		<path class="st1" d="M179.9,137.9l-1.5-8h1.4l1.1,6.7l3.9-6.7h1.5l-4.8,8H179.9z"></path>		<path class="st1" d="M190.9,138.1c-1.4,0-2.4-0.3-3-1c-0.6-0.7-0.7-1.7-0.4-3.2c0.3-1.3,0.8-2.3,1.5-3c0.7-0.7,1.8-1.1,3.2-1.1   c0.8,0,1.4,0.1,1.9,0.4c0.5,0.3,0.8,0.7,0.9,1.2c0.1,0.5,0.2,1.1,0,1.7l-0.3,1.5h-5.9c-0.1,0.6-0.1,1.1,0.1,1.4   c0.1,0.3,0.4,0.6,0.8,0.8c0.4,0.2,1,0.2,1.8,0.2c0.8,0,1.6-0.1,2.4-0.4l-0.2,1.1c-0.4,0.1-0.8,0.3-1.2,0.3   C191.9,138,191.4,138.1,190.9,138.1z M189,133.5h4.7l0.2-0.7c0.1-0.7,0.1-1.2-0.2-1.5c-0.2-0.4-0.8-0.5-1.6-0.5   c-0.9,0-1.6,0.2-2.1,0.7C189.5,132,189.2,132.6,189,133.5z"></path>		<path class="st1" d="M197.5,137.9l1.7-8h1.2l-0.1,0.9c0.4-0.3,0.9-0.6,1.5-0.8s1.2-0.3,1.8-0.3c1.9,0,2.7,1,2.3,2.9l-1.1,5.2h-1.4   l1.1-5.2c0.1-0.7,0.1-1.2-0.1-1.5c-0.2-0.3-0.7-0.4-1.5-0.4c-0.5,0-0.9,0.1-1.5,0.3c-0.5,0.2-1,0.4-1.3,0.7l-1.3,6H197.5z"></path>		<path class="st1" d="M211.4,138.1c-0.7,0-1.3-0.2-1.6-0.6c-0.3-0.4-0.4-1-0.3-1.8l1-4.7h-1.2l0.2-1.1h1.2l0.4-2l1.5-0.4l-0.5,2.4   h2.2L214,131h-2.1l-1,4.6c-0.1,0.5-0.1,0.8,0.1,1c0.2,0.2,0.5,0.3,1,0.3c0.2,0,0.3,0,0.5,0c0.2,0,0.4-0.1,0.6-0.1l-0.2,1   C212.4,138,211.9,138.1,211.4,138.1z"></path>		<path class="st1" d="M218.6,138.1c-0.9,0-1.5-0.3-1.9-0.8c-0.4-0.5-0.5-1.3-0.3-2.3l1.1-5.1h1.4l-1.1,5.1   c-0.1,0.7-0.1,1.2,0.1,1.5c0.2,0.3,0.7,0.4,1.5,0.4c0.5,0,1-0.1,1.5-0.3c0.5-0.2,0.9-0.4,1.3-0.7l1.3-6h1.4l-1.7,8h-1.2l0.1-0.9   c-0.4,0.3-0.9,0.6-1.5,0.8S219.3,138.1,218.6,138.1z"></path>		<path class="st1" d="M226.9,137.9l1.7-8h1.2l-0.1,1c0.5-0.3,1-0.5,1.6-0.7c0.6-0.2,1.1-0.4,1.7-0.5l-0.2,1.1   c-0.3,0.1-0.7,0.2-1.1,0.3c-0.4,0.1-0.8,0.3-1.1,0.4c-0.4,0.1-0.7,0.3-0.9,0.5l-1.3,6H226.9z"></path>		<path class="st1" d="M237.7,138.1c-1.4,0-2.4-0.3-3-1c-0.6-0.7-0.7-1.7-0.4-3.2c0.3-1.3,0.8-2.3,1.5-3c0.7-0.7,1.8-1.1,3.2-1.1   c0.8,0,1.4,0.1,1.9,0.4c0.5,0.3,0.8,0.7,0.9,1.2c0.1,0.5,0.2,1.1,0,1.7l-0.3,1.5h-5.9c-0.1,0.6-0.1,1.1,0.1,1.4   c0.1,0.3,0.4,0.6,0.8,0.8c0.4,0.2,1,0.2,1.8,0.2c0.8,0,1.6-0.1,2.4-0.4l-0.2,1.1c-0.4,0.1-0.8,0.3-1.2,0.3   C238.6,138,238.2,138.1,237.7,138.1z M235.8,133.5h4.7l0.2-0.7c0.1-0.7,0.1-1.2-0.2-1.5c-0.2-0.4-0.8-0.5-1.6-0.5   c-0.9,0-1.6,0.2-2.1,0.7C236.3,132,236,132.6,235.8,133.5z"></path>		<path class="st1" d="M253.4,138.1c-1.4,0-2.4-0.3-3-1c-0.6-0.7-0.7-1.7-0.4-3.2c0.3-1.3,0.8-2.3,1.5-3c0.7-0.7,1.8-1.1,3.2-1.1   c0.8,0,1.4,0.1,1.9,0.4c0.5,0.3,0.8,0.7,0.9,1.2c0.1,0.5,0.1,1.1,0,1.7l-0.3,1.5h-5.9c-0.1,0.6-0.1,1.1,0.1,1.4   c0.1,0.3,0.4,0.6,0.8,0.8c0.4,0.2,1,0.2,1.8,0.2c0.8,0,1.6-0.1,2.4-0.4l-0.2,1.1c-0.4,0.1-0.8,0.3-1.2,0.3   C254.3,138,253.9,138.1,253.4,138.1z M251.5,133.5h4.7l0.2-0.7c0.1-0.7,0.1-1.2-0.2-1.5c-0.2-0.4-0.8-0.5-1.6-0.5   c-0.9,0-1.6,0.2-2.1,0.7C252,132,251.7,132.6,251.5,133.5z"></path>		<path class="st1" d="M268.9,138.1c-1.3,0-2.2-0.4-2.8-1.1c-0.6-0.7-0.7-1.8-0.4-3.1c0.3-1.4,0.9-2.5,1.7-3.1c0.9-0.7,2-1,3.4-1   c0.5,0,1,0,1.3,0.1c0.3,0.1,0.7,0.2,1,0.3l-0.2,1.1c-0.3-0.1-0.6-0.3-0.9-0.3c-0.3-0.1-0.7-0.1-1.1-0.1c-1,0-1.8,0.2-2.4,0.7   c-0.6,0.5-1.1,1.3-1.3,2.4c-0.2,1.1-0.2,1.8,0.2,2.3c0.3,0.5,1.1,0.7,2.2,0.7c0.8,0,1.5-0.1,2.2-0.4l-0.2,1.1   c-0.4,0.1-0.8,0.3-1.2,0.3C269.9,138,269.4,138.1,268.9,138.1z"></path>		<path class="st1" d="M277.2,138.1c-0.9,0-1.5-0.3-1.9-0.8c-0.4-0.5-0.5-1.3-0.3-2.3l1.1-5.1h1.4l-1.1,5.1   c-0.1,0.7-0.1,1.2,0.1,1.5c0.2,0.3,0.7,0.4,1.5,0.4c0.5,0,1-0.1,1.5-0.3c0.5-0.2,0.9-0.4,1.3-0.7l1.3-6h1.4l-1.7,8h-1.2l0.1-0.9   c-0.4,0.3-0.9,0.6-1.5,0.8C278.5,138,277.9,138.1,277.2,138.1z"></path>		<path class="st1" d="M287.1,138.1c-0.5,0-0.9-0.2-1.2-0.5c-0.3-0.3-0.3-0.8-0.2-1.4l2.1-9.7h1.4l-2,9.5c-0.1,0.3-0.1,0.6,0,0.7   c0.1,0.1,0.2,0.2,0.5,0.2c0.2,0,0.5,0,0.8-0.1l-0.2,1.1c-0.2,0.1-0.4,0.1-0.6,0.1C287.5,138.1,287.3,138.1,287.1,138.1z"></path>		<path class="st1" d="M293.7,138.1c-0.7,0-1.3-0.2-1.6-0.6c-0.3-0.4-0.4-1-0.3-1.8l1-4.7h-1.2l0.2-1.1h1.2l0.4-2l1.5-0.4l-0.5,2.4   h2.2l-0.3,1.1h-2.1l-1,4.6c-0.1,0.5-0.1,0.8,0.1,1c0.2,0.2,0.5,0.3,1,0.3c0.2,0,0.3,0,0.5,0c0.2,0,0.4-0.1,0.6-0.1l-0.2,1   C294.8,138,294.3,138.1,293.7,138.1z"></path>		<path class="st1" d="M301,138.1c-0.9,0-1.5-0.3-1.9-0.8c-0.4-0.5-0.5-1.3-0.3-2.3l1.1-5.1h1.4l-1.1,5.1c-0.1,0.7-0.1,1.2,0.1,1.5   c0.2,0.3,0.7,0.4,1.5,0.4c0.5,0,1-0.1,1.5-0.3c0.5-0.2,0.9-0.4,1.3-0.7l1.3-6h1.4l-1.7,8h-1.2l0.1-0.9c-0.4,0.3-0.9,0.6-1.5,0.8   C302.3,138,301.7,138.1,301,138.1z"></path>		<path class="st1" d="M309.3,137.9l1.7-8h1.2l-0.1,1c0.5-0.3,1-0.5,1.6-0.7c0.6-0.2,1.1-0.4,1.7-0.5l-0.2,1.1   c-0.3,0.1-0.7,0.2-1.1,0.3c-0.4,0.1-0.8,0.3-1.1,0.4c-0.4,0.1-0.7,0.3-0.9,0.5l-1.3,6H309.3z"></path>		<path class="st1" d="M320.1,138.1c-1.4,0-2.4-0.3-3-1c-0.6-0.7-0.7-1.7-0.4-3.2c0.3-1.3,0.8-2.3,1.5-3c0.7-0.7,1.8-1.1,3.2-1.1   c0.8,0,1.4,0.1,1.9,0.4c0.5,0.3,0.8,0.7,0.9,1.2c0.1,0.5,0.1,1.1,0,1.7l-0.3,1.5H318c-0.1,0.6-0.1,1.1,0.1,1.4   c0.1,0.3,0.4,0.6,0.8,0.8c0.4,0.2,1,0.2,1.8,0.2c0.8,0,1.6-0.1,2.4-0.4l-0.2,1.1c-0.4,0.1-0.8,0.3-1.2,0.3   C321,138,320.6,138.1,320.1,138.1z M318.2,133.5h4.7l0.2-0.7c0.1-0.7,0.1-1.2-0.2-1.5c-0.2-0.4-0.8-0.5-1.6-0.5   c-0.9,0-1.6,0.2-2.1,0.7C318.7,132,318.4,132.6,318.2,133.5z"></path>		<path class="st1" d="M325.2,139.9l1.1-3h1.2l-1.3,3H325.2z"></path>		<path class="st1" d="M335.2,141.5l2.5-11.6h1.2l-0.1,0.8c0.4-0.3,0.9-0.6,1.4-0.8c0.5-0.2,1-0.2,1.6-0.2c1.1,0,1.9,0.3,2.4,1   s0.6,1.7,0.3,3.2c-0.3,1.4-0.8,2.5-1.6,3.2c-0.7,0.7-1.7,1-2.9,1c-1,0-1.9-0.3-2.5-0.8l-0.9,4.2H335.2z M339.8,137   c0.9,0,1.6-0.2,2.1-0.7c0.5-0.5,0.9-1.2,1.1-2.3c0.2-1,0.2-1.8-0.1-2.3c-0.3-0.5-0.9-0.8-1.9-0.8c-0.9,0-1.8,0.3-2.5,1l-0.9,4.4   c0.2,0.2,0.5,0.4,0.9,0.6C338.9,136.9,339.3,137,339.8,137z"></path>		<path class="st1" d="M350.7,138.1c-1.4,0-2.4-0.3-3-1c-0.6-0.7-0.7-1.7-0.4-3.2c0.3-1.3,0.8-2.3,1.5-3c0.7-0.7,1.8-1.1,3.2-1.1   c0.8,0,1.4,0.1,1.9,0.4c0.5,0.3,0.8,0.7,0.9,1.2c0.1,0.5,0.1,1.1,0,1.7l-0.3,1.5h-5.9c-0.1,0.6-0.1,1.1,0.1,1.4   c0.1,0.3,0.4,0.6,0.8,0.8c0.4,0.2,1,0.2,1.8,0.2c0.8,0,1.6-0.1,2.4-0.4l-0.2,1.1c-0.4,0.1-0.8,0.3-1.2,0.3   C351.6,138,351.2,138.1,350.7,138.1z M348.8,133.5h4.7l0.2-0.7c0.1-0.7,0.1-1.2-0.2-1.5c-0.2-0.4-0.8-0.5-1.6-0.5   c-0.9,0-1.6,0.2-2.1,0.7C349.3,132,349,132.6,348.8,133.5z"></path>		<path class="st1" d="M357.2,137.9l1.7-8h1.2l-0.1,1c0.5-0.3,1-0.5,1.6-0.7c0.6-0.2,1.1-0.4,1.7-0.5l-0.2,1.1   c-0.3,0.1-0.7,0.2-1.1,0.3c-0.4,0.1-0.8,0.3-1.1,0.4c-0.4,0.1-0.7,0.3-0.9,0.5l-1.3,6H357.2z"></path>		<path class="st1" d="M369,141.5l2.5-11.6h1.2l-0.1,0.8c0.4-0.3,0.9-0.6,1.4-0.8c0.5-0.2,1-0.2,1.6-0.2c1.1,0,1.9,0.3,2.4,1   c0.5,0.7,0.6,1.7,0.3,3.2c-0.3,1.4-0.8,2.5-1.6,3.2c-0.7,0.7-1.7,1-2.9,1c-1,0-1.9-0.3-2.5-0.8l-0.9,4.2H369z M373.6,137   c0.9,0,1.6-0.2,2.1-0.7c0.5-0.5,0.9-1.2,1.1-2.3c0.2-1,0.2-1.8-0.1-2.3c-0.3-0.5-0.9-0.8-1.9-0.8c-0.9,0-1.8,0.3-2.5,1l-0.9,4.4   c0.2,0.2,0.5,0.4,0.9,0.6C372.7,136.9,373.1,137,373.6,137z"></path>		<path class="st1" d="M383.8,138.1c-1.1,0-1.9-0.3-2.4-0.9c-0.5-0.6-0.6-1.6-0.3-3c0.2-1,0.5-1.8,1-2.4c0.5-0.7,1-1.1,1.7-1.5   c0.6-0.3,1.3-0.5,2-0.5c0.5,0,1,0.1,1.3,0.2c0.4,0.1,0.7,0.3,1,0.6l0.1-0.6h1.4l-1.7,8h-1.2l0.1-0.8c-0.4,0.3-0.9,0.6-1.4,0.8   C385,138,384.4,138.1,383.8,138.1z M384.4,137c0.5,0,0.9-0.1,1.3-0.2c0.4-0.2,0.8-0.4,1.2-0.7l0.9-4.4c-0.2-0.2-0.5-0.4-0.8-0.6   c-0.3-0.1-0.7-0.2-1.2-0.2c-0.9,0-1.7,0.3-2.3,0.8c-0.6,0.6-1,1.4-1.2,2.5c-0.2,1-0.2,1.8,0.1,2.2   C382.8,136.7,383.4,137,384.4,137z"></path>		<path class="st1" d="M394.1,138.1c-0.5,0-0.9,0-1.4-0.1c-0.5-0.1-0.8-0.2-1.2-0.3l0.3-1.2c0.7,0.3,1.5,0.4,2.4,0.4   c0.7,0,1.2-0.1,1.6-0.2c0.3-0.2,0.6-0.4,0.6-0.9c0.1-0.3,0-0.5-0.1-0.7s-0.4-0.3-0.7-0.4c-0.3-0.1-0.7-0.3-1.2-0.4   c-0.4-0.2-0.8-0.3-1.1-0.5c-0.3-0.2-0.6-0.4-0.7-0.7c-0.1-0.3-0.2-0.7-0.1-1.1c0.2-0.7,0.5-1.3,1-1.6c0.5-0.4,1.4-0.6,2.6-0.6   c0.4,0,0.8,0,1.2,0.1c0.4,0.1,0.7,0.1,1,0.2l-0.3,1.2c-0.7-0.2-1.3-0.4-2-0.4c-0.7,0-1.2,0.1-1.5,0.2c-0.3,0.1-0.6,0.4-0.7,0.8   c-0.1,0.3,0,0.5,0.1,0.6c0.1,0.2,0.3,0.3,0.6,0.4c0.3,0.1,0.6,0.2,1.1,0.4c0.9,0.3,1.5,0.6,1.8,0.9s0.4,0.9,0.3,1.5   c-0.2,0.8-0.5,1.4-1.1,1.7C396.1,137.9,395.2,138.1,394.1,138.1z"></path>		<path class="st1" d="M402.7,138.1c-0.5,0-0.9,0-1.4-0.1c-0.5-0.1-0.9-0.2-1.2-0.3l0.3-1.2c0.7,0.3,1.5,0.4,2.4,0.4   c0.7,0,1.2-0.1,1.6-0.2c0.3-0.2,0.6-0.4,0.6-0.9c0.1-0.3,0-0.5-0.1-0.7c-0.1-0.2-0.4-0.3-0.7-0.4c-0.3-0.1-0.7-0.3-1.2-0.4   c-0.4-0.2-0.8-0.3-1.1-0.5c-0.3-0.2-0.6-0.4-0.7-0.7c-0.1-0.3-0.2-0.7-0.1-1.1c0.2-0.7,0.5-1.3,1-1.6c0.5-0.4,1.4-0.6,2.6-0.6   c0.4,0,0.8,0,1.2,0.1c0.4,0.1,0.7,0.1,1,0.2l-0.3,1.2c-0.7-0.2-1.3-0.4-2-0.4c-0.7,0-1.2,0.1-1.5,0.2c-0.4,0.1-0.6,0.4-0.7,0.8   c-0.1,0.3,0,0.5,0.1,0.6c0.1,0.2,0.3,0.3,0.6,0.4c0.3,0.1,0.6,0.2,1.1,0.4c0.9,0.3,1.5,0.6,1.8,0.9c0.3,0.3,0.4,0.9,0.3,1.5   c-0.2,0.8-0.5,1.4-1.1,1.7C404.8,137.9,403.9,138.1,402.7,138.1z"></path>		<path class="st1" d="M409.8,137.9l1.5-6.9H410l0.4-1.1h2.5l-1.7,8H409.8z M411.7,128l0.3-1.3h1.5l-0.3,1.3H411.7z"></path>		<path class="st1" d="M418.5,138.1c-1.3,0-2.2-0.4-2.8-1.1c-0.5-0.7-0.6-1.7-0.4-3.1c0.3-1.3,0.8-2.4,1.6-3.1   c0.7-0.7,1.9-1.1,3.3-1.1c1.3,0,2.3,0.4,2.8,1.1c0.5,0.7,0.6,1.7,0.3,3.1c-0.3,1.4-0.8,2.4-1.6,3.1   C421.1,137.7,420,138.1,418.5,138.1z M418.8,136.9c1,0,1.7-0.2,2.2-0.7c0.5-0.5,0.9-1.2,1.1-2.3c0.2-1.1,0.2-1.8-0.1-2.3   c-0.3-0.5-0.9-0.7-1.9-0.7c-0.9,0-1.7,0.2-2.2,0.7c-0.5,0.5-0.9,1.2-1.1,2.3c-0.2,1.1-0.2,1.8,0.1,2.3   C417.2,136.7,417.8,136.9,418.8,136.9z"></path>		<path class="st1" d="M426,137.9l1.7-8h1.2l-0.1,0.9c0.4-0.3,0.9-0.6,1.5-0.8c0.6-0.2,1.2-0.3,1.8-0.3c1.9,0,2.7,1,2.3,2.9   l-1.1,5.2H432l1.1-5.2c0.1-0.7,0.1-1.2-0.1-1.5c-0.2-0.3-0.7-0.4-1.5-0.4c-0.5,0-0.9,0.1-1.5,0.3c-0.5,0.2-1,0.4-1.3,0.7l-1.3,6   H426z"></path>		<path class="st1" d="M440.7,138.1c-1.4,0-2.4-0.3-3-1c-0.6-0.7-0.7-1.7-0.4-3.2c0.3-1.3,0.8-2.3,1.5-3c0.7-0.7,1.8-1.1,3.2-1.1   c0.8,0,1.4,0.1,1.9,0.4c0.5,0.3,0.8,0.7,0.9,1.2c0.1,0.5,0.1,1.1,0,1.7l-0.3,1.5h-5.9c-0.1,0.6-0.1,1.1,0.1,1.4   c0.1,0.3,0.4,0.6,0.8,0.8c0.4,0.2,1,0.2,1.8,0.2c0.8,0,1.6-0.1,2.4-0.4l-0.2,1.1c-0.4,0.1-0.8,0.3-1.2,0.3   C441.6,138,441.2,138.1,440.7,138.1z M438.8,133.5h4.7l0.2-0.7c0.1-0.7,0.1-1.2-0.2-1.5c-0.2-0.4-0.8-0.5-1.6-0.5   c-0.9,0-1.6,0.2-2.1,0.7C439.3,132,439,132.6,438.8,133.5z"></path>	</g>	<polygon class="st1" points="175.3,65.5 195,13.6 185.9,13.6 170.3,56.1 158.9,24.8 151.3,28.5 165.5,65.5  "></polygon>	<rect x="202.4" y="13.6" class="st1" width="8.8" height="51.9"></rect>	<path class="st1" d="M239.7,13.6l-19.8,51.9h9.1l5.2-13.4H255l5.2,13.4h9l-19.7-51.9H239.7z M235.5,45.4l9-23.8l9,23.8H235.5z"></path>	<path class="st1" d="M297.6,66.4c4.8,0,8.7-0.4,11.8-1.3c3.1-0.9,5.5-1.9,7.1-2.9v-25h-20.5v5.7h13v14.5c-2.9,1.1-6.6,1.6-11.2,1.6  c-5.9,0-10.2-1.6-13-4.7c-2.8-3.1-4.2-7.7-4.2-13.6c0-6.6,1.3-11.6,4-15.1c2.7-3.5,7.3-5.2,13.9-5.2c5.4,0,10.3,0.8,14.7,2.4v-7.6  c-2.2-0.8-4.6-1.3-7.1-1.7c-2.5-0.4-5.3-0.6-8.3-0.6c-5.9,0-10.8,1.1-14.6,3.4c-3.8,2.3-6.7,5.5-8.6,9.6c-1.9,4.2-2.8,9.1-2.8,14.8  c0,7.9,2.2,14.2,6.5,18.8C282.6,64,289.1,66.4,297.6,66.4z"></path>	<path class="st1" d="M368.3,62.1v-25h-20.5v5.7h13v14.5c-2.9,1.1-6.6,1.6-11.2,1.6c-5.9,0-10.2-1.6-13-4.7  c-2.8-3.1-4.2-7.7-4.2-13.6c0-6.6,1.3-11.6,4-15.1c2.7-3.5,7.3-5.2,13.9-5.2c5.4,0,10.3,0.8,14.7,2.4v-7.6  c-2.2-0.8-4.6-1.3-7.1-1.7c-2.5-0.4-5.3-0.6-8.3-0.6c-5.9,0-10.8,1.1-14.6,3.4c-3.8,2.3-6.7,5.5-8.6,9.6c-1.9,4.2-2.8,9.1-2.8,14.8  c0,7.9,2.2,14.2,6.5,18.8c4.3,4.6,10.8,6.9,19.3,6.9c4.8,0,8.7-0.4,11.8-1.3C364.2,64.1,366.6,63.2,368.3,62.1z"></path>	<rect x="376.8" y="13.6" class="st1" width="8.8" height="51.9"></rect>	<path class="st1" d="M408.5,52.2h20.9l5.2,13.4h9l-19.7-51.9h-9.8l-19.8,51.9h9.1L408.5,52.2z M418.9,21.6l9,23.8h-18.1L418.9,21.6  z"></path>	<path class="st1" d="M173.8,107.8c-7.7,0-11.5-3.9-11.5-11.7c0-4.2,0.9-7.2,2.6-9.3c1.8-2,4.7-3,8.7-3c3.6,0,6.9,0.6,10,1.9v-6.5  c-1.5-0.6-3.1-1-4.8-1.3c-1.7-0.3-3.6-0.5-5.8-0.5c-6.1,0-10.7,1.6-13.8,4.9c-3.1,3.3-4.6,7.9-4.6,13.7c0,5.6,1.6,9.9,4.7,13.2  c3.2,3.2,7.7,4.8,13.7,4.8c2.1,0,4.1-0.1,5.8-0.4c1.7-0.3,3.3-0.7,4.8-1.2V106c-1.5,0.6-3.2,1.1-4.9,1.4  C177.2,107.7,175.5,107.8,173.8,107.8z"></path>	<path class="st1" d="M204.6,77.5c-5.7,0-10,1.5-12.9,4.4c-2.9,2.9-4.4,7.6-4.4,14.1c0,12.1,5.8,18.2,17.3,18.2  c11.5,0,17.3-6.1,17.3-18.2c0-6.5-1.5-11.2-4.4-14.1C214.6,78.9,210.3,77.5,204.6,77.5z M212,104.9c-1.6,1.9-4,2.9-7.4,2.9  c-3.3,0-5.8-1-7.4-2.9c-1.6-1.9-2.3-4.9-2.3-8.9c0-4.5,0.8-7.6,2.3-9.4c1.6-1.8,4-2.7,7.4-2.7c3.3,0,5.8,0.9,7.4,2.7  c1.6,1.8,2.3,5,2.3,9.4C214.4,100,213.6,103,212,104.9z"></path>	<polygon class="st1" points="251,101.7 234.2,78 227.7,78 227.7,113.6 235.2,113.6 235.2,89.9 252,113.6 258.4,113.6 258.4,78   251,78  "></polygon>	<path class="st1" d="M296,107.8c-7.7,0-11.5-3.9-11.5-11.7c0-4.2,0.9-7.2,2.6-9.3c1.8-2,4.7-3,8.7-3c3.6,0,6.9,0.6,10,1.9v-6.5  c-1.5-0.6-3.1-1-4.8-1.3c-1.7-0.3-3.6-0.5-5.8-0.5c-6.1,0-10.7,1.6-13.8,4.9c-3.1,3.3-4.6,7.9-4.6,13.7c0,5.6,1.6,9.9,4.7,13.2  c3.2,3.2,7.7,4.8,13.7,4.8c2.1,0,4.1-0.1,5.8-0.4c1.7-0.3,3.3-0.7,4.8-1.2V106c-1.5,0.6-3.2,1.1-4.9,1.4  C299.5,107.7,297.8,107.8,296,107.8z"></path>	<path class="st1" d="M322.6,78L309,113.6h7.8l3.3-8.6h13.1l3.4,8.6h7.7L330.8,78H322.6z M321.2,99.3l5.4-14.3l5.5,14.3H321.2z"></path>	<path class="st1" d="M377.2,96.1c1.2-1.7,1.8-3.8,1.8-6.2c0-3.6-1-6.5-2.9-8.7c-1.9-2.2-4.9-3.2-9-3.2h-17.1v35.5h7.5v-11.8h5.8  c1,0,1.8,0.2,2.2,0.5c0.4,0.3,0.8,0.9,1.2,1.7l4.2,9.5h7.7l-4.3-9.9c-0.4-0.9-0.7-1.7-1.1-2.2c-0.4-0.6-0.8-1.1-1.4-1.5  C374.2,99.1,375.9,97.9,377.2,96.1z M369.8,94.4c-1.1,0.9-2.6,1.3-4.6,1.3h-7.7V84.2h8.1c2,0,3.4,0.5,4.4,1.4  c1,0.9,1.4,2.4,1.4,4.4C371.5,92,370.9,93.5,369.8,94.4z"></path>	<polygon class="st1" points="392.3,78 384.8,78 384.8,113.6 409.8,113.6 409.8,107.8 392.3,107.8  "></polygon>	<path class="st1" d="M442.4,81.9c-2.9-2.9-7.2-4.4-12.9-4.4c-5.7,0-10,1.5-12.9,4.4c-2.9,2.9-4.4,7.6-4.4,14.1  c0,12.1,5.8,18.2,17.3,18.2c11.5,0,17.3-6.1,17.3-18.2C446.8,89.5,445.3,84.8,442.4,81.9z M436.9,104.9c-1.6,1.9-4,2.9-7.4,2.9  c-3.3,0-5.8-1-7.4-2.9c-1.6-1.9-2.3-4.9-2.3-8.9c0-4.5,0.8-7.6,2.3-9.4c1.6-1.8,4-2.7,7.4-2.7c3.3,0,5.8,0.9,7.4,2.7  c1.6,1.8,2.3,5,2.3,9.4C439.2,100,438.5,103,436.9,104.9z"></path>	<path class="st5" d="M62.7,111.1l-12.1,2.6c0,0.5,0.1,2.7,0.1,3.3c5.9,2,10,5.5,12.1,7C63,119.8,63,115.4,62.7,111.1z"></path></g></svg>