<svg xmlns="http://www.w3.org/2000/svg" xmlns:xlink="http://www.w3.org/1999/xlink" width="1057px" height="1119px" viewBox="0 0 1057 1119"><title>ViaggiaConCarlo-logo_colori</title><desc>Created with Sketch.</desc><g id="Welcome" stroke="none" stroke-width="1" fill="none" fill-rule="evenodd" opacity="0.457682292"><g id="Home-viaggia-con-carlo" transform="translate(-279.000000, -2601.000000)" fill="#45413F" fill-rule="nonzero"><g id="ViaggiaConCarlo-logo_colori" transform="translate(279.000000, 2601.000000)"><path d="M730.681818,376.871646 C739.818182,367.692274 747.431818,355.453111 752,343.213948 C741.340909,335.564471 727.636364,330.974785 715.454545,327.914994 C701.75,326.385099 688.045455,326.385099 674.340909,330.974785 C646.931818,340.154157 627.136364,361.572692 618,387.580914 C640.840909,402.879868 669.772727,407.469554 697.181818,398.290181 C709.363636,395.230391 721.545455,387.580914 730.681818,376.871646" id="Path" opacity="0.187825521"></path><path d="M556,309 C620.235294,302.882353 681.411765,287.588235 738,264.647059 L597.294118,153 L556,309 Z" id="Path" opacity="0.187825521"></path><path d="M776.924051,251 L861,201.506667 C845.43038,178.306667 829.860759,156.653333 811.177215,135 L738,199.96 C752.012658,215.426667 764.468354,232.44 776.924051,251" id="Path" opacity="0.187825521"></path><path d="M540.774059,140.945079 C548.451883,123.952024 565.343096,106.958969 580.698745,100.779676 C586.841004,99.2348529 591.447699,97.6900297 597.589958,97.6900297 C626.76569,97.6900297 665.154812,120.862377 703.543933,161.02778 C708.150628,165.66225 712.757322,170.296719 715.828452,174.931189 L788,110.048615 C783.393305,103.869322 778.786611,99.2348529 772.644351,93.0555602 C715.828452,34.3522793 632.90795,-21.2613552 548.451883,8.09028527 C506.991632,21.9936939 468.60251,59.0694502 451.711297,100.779676 C436.355649,136.310609 425.606695,173.386366 421,213.551768 L516.205021,229 C522.34728,198.103536 528.48954,168.751896 540.774059,140.945079" id="Path" opacity="0.187825521"></path><path d="M825.386667,345 L912,300.478873 C902.72,278.985915 891.893333,257.492958 879.52,236 L796,285.126761 C806.826667,305.084507 817.653333,325.042254 825.386667,345" id="Path" opacity="0.187825521"></path><path d="M514.486486,258.681818 L419.135135,243 C417.621622,264.954545 417.621622,285.340909 419.135135,307.295455 L516,312 C514.486486,293.181818 512.972973,275.931818 514.486486,258.681818" id="Path" opacity="0.187825521"></path><path d="M871.911392,505 L970,498.791667 C962.21519,450.677083 951.316456,402.5625 934.189873,356 L847,399.458333 C857.898734,433.604167 867.240506,469.302083 871.911392,505" id="Path" opacity="0.187825521"></path><path d="M608.805556,544.689655 C593.342593,524.666667 579.425926,503.103448 567.055556,480 L465,490.781609 C483.555556,532.367816 505.203704,570.873563 533.037037,604.758621 C536.12963,607.83908 537.675926,610.91954 540.768519,614 L632,570.873563 C622.722222,563.172414 614.990741,553.931034 608.805556,544.689655" id="Path" opacity="0.187825521"></path><path d="M522.684211,353.581818 L425,349 C429.578947,378.018182 435.684211,405.509091 443.315789,433 L541,422.309091 C531.842105,400.927273 525.736842,378.018182 522.684211,353.581818" id="Path" opacity="0.187825521"></path><path d="M708.166667,988.5 C708.166667,988.5 709.666667,988.5 708.166667,988.5 L708.166667,988.5 Z" id="Path" opacity="0.187825521"></path><path d="M668,981 C668,996.505618 671.138462,1063.17978 674.276923,1097.29213 C705.661538,1106.59551 737.046154,1114.34831 770,1119 C768.430769,1067.83146 766.861538,1010.46067 766.861538,990.303371 C733.907692,988.752809 700.953846,987.202247 668,981" id="Shape" opacity="0.187825521"></path><path d="M769.432836,930.183333 C770.955224,921.083333 772.477612,910.466667 774,899.85 C740.507463,895.3 708.537313,884.683333 681.134328,868 C679.61194,892.266667 675.044776,915.016667 672,939.283333 C702.447761,949.9 732.895522,955.966667 766.38806,959 C766.38806,948.383333 767.910448,939.283333 769.432836,930.183333" id="Path" opacity="0.187825521"></path><path d="M882,888.197183 C889.739726,908.15493 899.027397,926.577465 906.767123,945 C937.726027,935.788732 968.684932,921.971831 995,905.084507 C984.164384,882.056338 973.328767,859.028169 965.589041,836 C942.369863,859.028169 914.506849,877.450704 882,888.197183" id="Path" opacity="0.187825521"></path><path d="M708.166667,988.5 C708.166667,988.5 709.666667,988.5 708.166667,988.5 L708.166667,988.5 Z" id="Path" opacity="0.187825521"></path><path d="M745.688673,644.503067 C764.22442,661.441718 785.849457,675.300613 809.019141,683 C822.92095,662.981595 832.188824,639.883436 836.82276,613.705521 C841.456697,589.067485 838.367406,561.349693 830.644178,536.711656 C813.653077,485.895706 773.492293,448.93865 725.608281,432 C697.804661,473.576687 688.536788,527.472393 705.527889,578.288344 C713.251117,604.466258 727.152927,626.02454 745.688673,644.503067" id="Path" opacity="0.187825521"></path><path d="M885.790698,836.340526 C901.294574,825.512852 913.697674,810.044747 923,794.576642 C909.046512,780.655347 893.542636,771.374484 874.937984,765.187242 C856.333333,759 836.178295,757.453189 816.023256,760.546811 C775.713178,766.734053 741.604651,791.483021 723,825.512852 C750.906977,851.808631 789.666667,865.729925 829.976744,859.542683 C851.682171,854.902252 870.286822,847.168199 885.790698,836.340526" id="Path" opacity="0.187825521"></path><path d="M837.215485,1090.63636 C844.747411,1101.29545 853.785721,1108.90909 865.836802,1115 C874.875113,1105.86364 880.900653,1095.20455 885.419808,1083.02273 C889.938964,1070.84091 891.445349,1057.13636 888.432579,1043.43182 C883.913423,1016.02273 867.343187,993.181818 844.747411,981 C826.67079,999.272727 817.632479,1025.15909 822.151634,1052.56818 C823.658019,1067.79545 829.68356,1079.97727 837.215485,1090.63636" id="Path" opacity="0.187825521"></path><polygon id="Path" opacity="0.187825521" points="868 894 836.08 956 792 903.073171"></polygon><path d="M1055.45977,1091.97297 C1046.21839,1045.75676 1035.43678,998 1020.03448,953.324324 C1020.03448,951.783784 1018.49425,950.243243 1018.49425,948.702703 C1016.95402,945.621622 1016.95402,944.081081 1015.41379,941 C986.149425,953.324324 955.344828,964.108108 923,971.810811 C924.54023,976.432432 927.62069,981.054054 929.16092,984.135135 C930.701149,987.216216 959.965517,1062.7027 981.528736,1112 C983.068966,1112 984.609195,1112 986.149425,1110.45946 C1004.63218,1105.83784 1023.11494,1101.21622 1041.5977,1096.59459 L1057,1091.97297 C1055.45977,1093.51351 1055.45977,1093.51351 1055.45977,1091.97297" id="Path" opacity="0.187825521"></path><path d="M368.2,749 L461,723.119403 C451.72,697.238806 442.44,671.358209 431.613333,647 L345,691.149254 C354.28,709.41791 362.013333,729.208955 368.2,749" id="Path" opacity="0.187825521"></path><path d="M170.657258,585.763396 C182.947581,571.780465 204.455645,559.351194 219.818548,557.797535 C225.96371,557.797535 232.108871,557.797535 236.717742,559.351194 C264.370968,567.119489 296.633065,599.746326 322.75,647.909752 C325.822581,654.124388 328.895161,658.785364 331.967742,665 L418,619.943892 C414.927419,613.729256 411.854839,607.51462 407.245968,599.746326 C367.302419,526.724357 301.241935,452.148729 212.137097,458.363365 C167.584677,463.024342 123.032258,489.436543 95.3790323,523.617039 C70.7983871,553.136559 52.3629032,588.870713 37,624.604868 L126.104839,665 C136.858871,635.480481 152.221774,607.51462 170.657258,585.763396" id="Path" opacity="0.187825521"></path><path d="M394.173913,854 L487,833.949153 C483.956522,810.813559 477.869565,786.135593 473.304348,763 L382,789.220339 C386.565217,810.813559 391.130435,832.40678 394.173913,854" id="Path" opacity="0.187825521"></path><path d="M116,690.101695 L26.4411765,650 C20.2647059,670.050847 14.0882353,690.101695 11,711.694915 L105.191176,741 C108.279412,724.033898 111.367647,707.067797 116,690.101695" id="Path" opacity="0.187825521"></path><path d="M496.972631,999 C498.536706,964 498.536706,929 495.408556,894 L400,915.304348 C400,919.869565 400,922.913043 400,927.478261 C415.640747,936.608696 431.281494,947.26087 446.922241,959.434783 C464.127062,970.086957 481.331884,983.782609 496.972631,999" id="Path" opacity="0.187825521"></path><path d="M96.46875,834.333333 C96.46875,818.777778 96.46875,801.666667 98,786.111111 L3.0625,755 C0,783 0,811 0,839 C32.15625,835.888889 64.3125,832.777778 96.46875,834.333333" id="Path" opacity="0.187825521"></path><path d="M145,753.721066 C208,764.656365 272.536585,766.21855 334,756.845437 L224.902439,610 L145,753.721066 Z" id="Path" opacity="0.187825521"></path><path d="M726.46875,688.210526 C714.21875,674.473684 698.90625,656.157895 683.59375,633.263158 C680.53125,628.684211 677.46875,624.105263 675.9375,619.526316 L674.40625,618 L663.6875,624.105263 L581,662.263158 C594.78125,677.526316 608.5625,691.263158 620.8125,708.052632 C642.25,734 660.625,761.473684 671.34375,792 C679,784.368421 686.65625,776.736842 695.84375,770.631579 C712.6875,756.894737 732.59375,746.210526 754.03125,738.578947 L777,730.947368 C777,730.947368 755.5625,720.263158 726.46875,688.210526" id="Path" opacity="0.187825521"></path><path d="M974.918033,556 L877.759563,563.748092 C879.301761,585.442748 879.301761,607.137405 879.301761,628.832061 C876.217365,658.274809 870.048573,693.916031 850,723.358779 L868.506375,724.908397 C868.506375,724.908397 868.506375,724.908397 868.506375,724.908397 C902.43473,729.557252 933.278689,740.40458 961.038251,759 C962.580449,751.251908 964.122647,743.503817 965.664845,735.755725 C976.460231,675.320611 979.544627,616.435115 974.918033,556" id="Path" opacity="0.187825521"></path><path d="M286.989247,863.574468 C299.204301,857.361702 308.365591,848.042553 316,837.170213 C308.365591,826.297872 297.677419,818.531915 285.462366,812.319149 C273.247312,806.106383 259.505376,803 244.236559,803 C215.225806,804.553191 189.268817,818.531915 174,841.829787 C190.795699,863.574468 216.752688,876 245.763441,876 C261.032258,874.446809 274.774194,869.787234 286.989247,863.574468" id="Path" opacity="0.187825521"></path></g></g></g></svg>